<svg xmlns="http://www.w3.org/2000/svg">
<!--
  Cloud 9 — facility & experience icon system.
  One grid (48 x 48), one stroke language: fill none, stroke currentColor,
  round caps + joins. Stroke width is set by the consuming element (.c9x-ico).
  Usage: <svg class="c9x-ico"><use href="assets/inner/c9-icons.svg#i-cycle"/></svg>
-->
<defs>
  <symbol id="i-cycle" viewBox="0 0 48 48" fill="none" stroke="currentColor" stroke-linecap="round" stroke-linejoin="round">
    <circle cx="12" cy="31" r="8"/><circle cx="36" cy="31" r="8"/>
    <path d="M12 31l7-13h11l6 13M19 18l6 13h-13M25 31l5-13M16 14h6M30 18l-2-5h4"/>
  </symbol>
  <symbol id="i-trek" viewBox="0 0 48 48" fill="none" stroke="currentColor" stroke-linecap="round" stroke-linejoin="round">
    <path d="M4 40l12-18 7 9 6-8 15 17z"/>
    <path d="M16 22l3 4 3-2"/>
    <path d="M10 40c4-3 7-2 10-5s6-3 8-1 6 3 10 6" stroke-dasharray="2 3"/>
    <circle cx="33" cy="9" r="2.5"/><path d="M33 12v6M30 15h6"/>
  </symbol>
  <symbol id="i-swim" viewBox="0 0 48 48" fill="none" stroke="currentColor" stroke-linecap="round" stroke-linejoin="round">
    <circle cx="33" cy="13" r="3"/>
    <path d="M10 26l9-9 6 5 5-3"/>
    <path d="M4 32c3 0 3-2 6-2s3 2 6 2 3-2 6-2 3 2 6 2 3-2 6-2 3 2 6 2 3-2 4-2"/>
    <path d="M4 39c3 0 3-2 6-2s3 2 6 2 3-2 6-2 3 2 6 2 3-2 6-2 3 2 6 2 3-2 4-2"/>
  </symbol>
  <symbol id="i-outdoor" viewBox="0 0 48 48" fill="none" stroke="currentColor" stroke-linecap="round" stroke-linejoin="round">
    <circle cx="24" cy="24" r="15"/>
    <path d="M24 9v30M9 24h30M13.5 13.5c5 4 5 17 0 21M34.5 13.5c-5 4-5 17 0 21"/>
  </symbol>
  <symbol id="i-indoor" viewBox="0 0 48 48" fill="none" stroke="currentColor" stroke-linecap="round" stroke-linejoin="round">
    <rect x="6" y="14" width="36" height="22" rx="3"/>
    <path d="M6 25h36M24 14v22"/>
    <circle cx="15" cy="20" r="1.6"/><circle cx="33" cy="30" r="1.6"/>
    <path d="M12 36v5M36 36v5"/>
  </symbol>
  <symbol id="i-bonfire" viewBox="0 0 48 48" fill="none" stroke="currentColor" stroke-linecap="round" stroke-linejoin="round">
    <path d="M24 8c2 6 9 9 9 17a9 9 0 0 1-18 0c0-4 2-6 4-8 0 3 1 5 3 6-1-6 0-11 2-15z"/>
    <path d="M24 26c1 2 3 3 3 5a3 3 0 0 1-6 0c0-2 2-3 3-5z"/>
    <path d="M8 42l32-6M40 42L8 36"/>
  </symbol>
  <symbol id="i-parking" viewBox="0 0 48 48" fill="none" stroke="currentColor" stroke-linecap="round" stroke-linejoin="round">
    <rect x="8" y="6" width="32" height="36" rx="8"/>
    <path d="M19 34V14h7a6 6 0 0 1 0 12h-7"/>
  </symbol>
  <symbol id="i-wifi" viewBox="0 0 48 48" fill="none" stroke="currentColor" stroke-linecap="round" stroke-linejoin="round">
    <path d="M6 19a26 26 0 0 1 36 0M12 25.5a17 17 0 0 1 24 0M18 32a8 8 0 0 1 12 0"/>
    <circle cx="24" cy="38" r="1.8"/>
  </symbol>
  <symbol id="i-access" viewBox="0 0 48 48" fill="none" stroke="currentColor" stroke-linecap="round" stroke-linejoin="round">
    <circle cx="22" cy="8" r="3"/>
    <path d="M22 13v12h10l4 10 4-1.5"/>
    <path d="M22 18h8"/>
    <path d="M17 21a10 10 0 1 0 13 12"/>
  </symbol>
  <symbol id="i-banquet" viewBox="0 0 48 48" fill="none" stroke="currentColor" stroke-linecap="round" stroke-linejoin="round">
    <path d="M6 20L24 8l18 12"/>
    <path d="M10 20v20M38 20v20M6 40h36"/>
    <path d="M17 40v-8a7 7 0 0 1 14 0v8"/>
    <path d="M18 20h12"/>
  </symbol>
  <symbol id="i-dining" viewBox="0 0 48 48" fill="none" stroke="currentColor" stroke-linecap="round" stroke-linejoin="round">
    <path d="M8 32a16 16 0 0 1 32 0z"/>
    <path d="M4 36h40M24 13v3"/>
    <circle cx="24" cy="11" r="2"/>
  </symbol>
  <symbol id="i-conference" viewBox="0 0 48 48" fill="none" stroke="currentColor" stroke-linecap="round" stroke-linejoin="round">
    <rect x="8" y="8" width="32" height="20" rx="2"/>
    <path d="M24 28v6M16 40l8-6 8 6M14 16h12M14 21h20"/>
  </symbol>
  <symbol id="i-stay" viewBox="0 0 48 48" fill="none" stroke="currentColor" stroke-linecap="round" stroke-linejoin="round">
    <path d="M6 22L24 9l18 13"/>
    <path d="M10 19v21h28V19"/>
    <path d="M20 40V29h8v11"/>
  </symbol>
  <symbol id="i-lotus" viewBox="0 0 48 48" fill="none" stroke="currentColor" stroke-linecap="round" stroke-linejoin="round">
    <path d="M24 10c5 5 5 15 0 22-5-7-5-17 0-22z"/>
    <path d="M24 32c-4-6-11-9-17-8 1 6 8 9 17 8zM24 32c4-6 11-9 17-8-1 6-8 9-17 8z"/>
    <path d="M10 38h28"/>
  </symbol>
  <symbol id="i-sun" viewBox="0 0 48 48" fill="none" stroke="currentColor" stroke-linecap="round" stroke-linejoin="round">
    <path d="M12 32a12 12 0 0 1 24 0"/>
    <path d="M4 32h40M24 10v5M9 17l3.5 3.5M39 17l-3.5 3.5"/>
    <path d="M10 39h28" stroke-dasharray="2 4"/>
  </symbol>
  <symbol id="i-temple" viewBox="0 0 48 48" fill="none" stroke="currentColor" stroke-linecap="round" stroke-linejoin="round">
    <path d="M24 4v4M20 8h8"/>
    <path d="M24 8c-4 4-9 8-9 14h18c0-6-5-10-9-14z"/>
    <path d="M11 22h26M13 22v18M35 22v18M8 40h32"/>
    <path d="M20 40v-9a4 4 0 0 1 8 0v9"/>
  </symbol>
  <symbol id="i-diya" viewBox="0 0 48 48" fill="none" stroke="currentColor" stroke-linecap="round" stroke-linejoin="round">
    <path d="M24 10c3 4 4 7 4 9a4 4 0 0 1-8 0c0-2 1-5 4-9z"/>
    <path d="M8 28c4 7 10 10 16 10s12-3 16-10z"/>
    <path d="M18 42h12"/>
  </symbol>
  <symbol id="i-rings" viewBox="0 0 48 48" fill="none" stroke="currentColor" stroke-linecap="round" stroke-linejoin="round">
    <circle cx="18" cy="29" r="10"/><circle cx="30" cy="29" r="10"/>
    <path d="M26 13l4-5 4 5-4 3z"/>
  </symbol>
  <symbol id="i-celebrate" viewBox="0 0 48 48" fill="none" stroke="currentColor" stroke-linecap="round" stroke-linejoin="round">
    <path d="M8 42l8-22 12 12z"/>
    <path d="M22 16c2-3 2-6 0-9M30 22c4-1 7 0 10 3M27 12l3-3M36 16l4-1M34 7v3"/>
  </symbol>
  <symbol id="i-spa" viewBox="0 0 48 48" fill="none" stroke="currentColor" stroke-linecap="round" stroke-linejoin="round">
    <path d="M6 30c6 0 8 6 18 6s12-6 18-6"/>
    <path d="M24 30c-6-4-8-10-6-18 5 3 7 9 6 18zM24 30c6-4 8-10 6-18-5 3-7 9-6 18z"/>
  </symbol>
</defs>
</svg>
